<!DOCTYPE svg PUBLIC "-//W3C//DTD SVG 1.1//EN" "http://www.w3.org/Graphics/SVG/1.1/DTD/svg11.dtd">

<!-- Uploaded to: SVG Repo, www.svgrepo.com, Transformed by: SVG Repo Mixer Tools -->
<svg width="30px" height="30px" viewBox="-11.52 -11.52 71.04 71.04" fill="none" xmlns="http://www.w3.org/2000/svg" transform="rotate(0)matrix(1, 0, 0, 1, 0, 0)">

<g id="SVGRepo_bgCarrier" stroke-width="0" transform="translate(0,0), scale(1)">

<path transform="translate(-11.52, -11.52), scale(4.44)" fill="#86cbe4" d="M9.166.33a2.25 2.25 0 00-2.332 0l-5.25 3.182A2.25 2.25 0 00.5 5.436v5.128a2.25 2.25 0 001.084 1.924l5.25 3.182a2.25 2.25 0 002.332 0l5.25-3.182a2.25 2.25 0 001.084-1.924V5.436a2.25 2.25 0 00-1.084-1.924L9.166.33z" strokewidth="0"/>

</g>

<g id="SVGRepo_tracerCarrier" stroke-linecap="round" stroke-linejoin="round" stroke="#CCCCCC" stroke-width="0.384"/>

<g id="SVGRepo_iconCarrier"> <rect width="30" height="30" fill="white" fill-opacity="0.01"/> <path fill-rule="evenodd" clip-rule="evenodd" d="M20 5.91396H28V13.914H43V21.914H5V13.914H20V5.91396Z" stroke="#3e1e2d" stroke-width="4" stroke-linecap="round" stroke-linejoin="round"/> <path d="M8 40H40V22H8V40Z" fill="#e109b2" stroke="#3e1e2d" stroke-width="4" stroke-linejoin="round"/> <path d="M16 39.8975V33.914" stroke="white" stroke-width="4" stroke-linecap="round" stroke-linejoin="round"/> <path d="M24 39.8975V33.8975" stroke="white" stroke-width="4" stroke-linecap="round" stroke-linejoin="round"/> <path d="M32 39.8975V33.914" stroke="white" stroke-width="4" stroke-linecap="round" stroke-linejoin="round"/> <path d="M12 40H36" stroke="#3e1e2d" stroke-width="4" stroke-linecap="round" stroke-linejoin="round"/> </g>

</svg>